<svg aria-hidden="true" style="position: absolute; width: 0; height: 0; overflow: hidden;" version="1.1" xmlns="http://www.w3.org/2000/svg" xmlns:xlink="http://www.w3.org/1999/xlink">
<defs>
<symbol id="icon-arrow-up" viewBox="0 0 32 32">
<path d="M17.333 16v10.667h-2.667v-10.667h-9.333l10.667-10.667 10.667 10.667h-9.333z"></path>
</symbol>
<symbol id="icon-code-line" viewBox="0 0 32 32">
<path d="M30.667 16l-9.428 9.428-1.885-1.885 7.543-7.543-7.543-7.543 1.885-1.885 9.428 9.428zM5.104 16l7.543 7.543-1.885 1.885-9.428-9.428 9.428-9.428 1.885 1.885-7.543 7.543z"></path>
</symbol>
<symbol id="icon-copyright" viewBox="0 0 32 32">
<path d="M16 2.667c7.36 0 13.333 5.973 13.333 13.333s-5.973 13.333-13.333 13.333-13.333-5.973-13.333-13.333 5.973-13.333 13.333-13.333zM16 5.333c-5.893 0-10.667 4.773-10.667 10.667s4.773 10.667 10.667 10.667 10.667-4.773 10.667-10.667-4.773-10.667-10.667-10.667zM16 9.333c2.427 0 4.551 1.297 5.717 3.237l-2.285 1.372c-0.712-1.172-1.981-1.943-3.431-1.943-2.209 0-4 1.791-4 4s1.791 4 4 4c1.449 0 2.717-0.77 3.419-1.923l0.010-0.018 2.287 1.371c-1.185 1.955-3.302 3.241-5.719 3.241-3.681 0-6.665-2.984-6.665-6.665 0-0.002 0-0.004 0-0.006v0c0-3.68 2.987-6.667 6.667-6.667z"></path>
</symbol>
<symbol id="icon-facebook" viewBox="0 0 32 32">
<path d="M18.667 18h3.333l1.333-5.333h-4.667v-2.667c0-1.373 0-2.667 2.667-2.667h2v-4.48c-0.435-0.057-2.076-0.187-3.809-0.187-3.62 0-6.191 2.209-6.191 6.267v3.733h-4v5.333h4v11.333h5.333v-11.333z"></path>
</symbol>
<symbol id="icon-file" viewBox="0 0 32 32">
<path d="M12 2.671v-0.004h14.664c0.736 0 1.336 0.607 1.336 1.323v24.021c-0.001 0.731-0.593 1.323-1.324 1.323h-21.352c-0.732-0.005-1.324-0.6-1.324-1.333 0-0.003 0-0.007 0-0.010v0-17.324l8-7.996zM7.773 10.667h4.227v-4.227l-4.227 4.227zM14.667 5.333v6.667c0 0.736-0.597 1.333-1.333 1.333v0h-6.667v13.333h18.667v-21.333h-10.667z"></path>
</symbol>
<symbol id="icon-instagram" viewBox="0 0 32 32">
<path d="M16 2.667c3.623 0 4.075 0.013 5.496 0.080 1.42 0.067 2.387 0.289 3.237 0.62 0.88 0.339 1.621 0.797 2.363 1.537 0.679 0.667 1.203 1.473 1.537 2.363 0.329 0.849 0.553 1.817 0.62 3.237 0.063 1.421 0.080 1.873 0.080 5.496s-0.013 4.075-0.080 5.496c-0.067 1.42-0.291 2.387-0.62 3.237-0.352 0.925-0.876 1.713-1.536 2.362l-0.001 0.001c-0.667 0.677-1.473 1.203-2.363 1.537-0.849 0.329-1.817 0.553-3.237 0.62-1.421 0.063-1.873 0.080-5.496 0.080s-4.075-0.013-5.496-0.080c-1.42-0.067-2.387-0.291-3.237-0.62-0.925-0.353-1.713-0.876-2.362-1.536l-0.001-0.001c-0.661-0.65-1.184-1.438-1.522-2.318l-0.015-0.045c-0.331-0.849-0.553-1.817-0.62-3.237-0.063-1.421-0.080-1.873-0.080-5.496s0.013-4.075 0.080-5.496c0.067-1.421 0.289-2.387 0.62-3.237 0.352-0.925 0.875-1.713 1.536-2.362l0.001-0.001c0.65-0.661 1.438-1.184 2.318-1.522l0.045-0.015c0.851-0.331 1.816-0.553 3.237-0.62 1.421-0.063 1.873-0.080 5.496-0.080zM16 9.333c-3.682 0-6.667 2.985-6.667 6.667s2.985 6.667 6.667 6.667v0c3.682 0 6.667-2.985 6.667-6.667s-2.985-6.667-6.667-6.667v0zM24.667 9c0-0.92-0.746-1.667-1.667-1.667s-1.667 0.746-1.667 1.667v0c0 0.92 0.746 1.667 1.667 1.667s1.667-0.746 1.667-1.667v0zM16 12c2.209 0 4 1.791 4 4s-1.791 4-4 4v0c-2.209 0-4-1.791-4-4s1.791-4 4-4v0z"></path>
</symbol>
<symbol id="icon-mail" viewBox="0 0 32 32">
<path stroke-linejoin="round" stroke-linecap="round" stroke-miterlimit="4" stroke-width="1.7778" d="M5.333 5.333h21.333c1.467 0 2.667 1.2 2.667 2.667v16c0 1.467-1.2 2.667-2.667 2.667h-21.333c-1.467 0-2.667-1.2-2.667-2.667v-16c0-1.467 1.2-2.667 2.667-2.667z"></path>
<path stroke-linejoin="round" stroke-linecap="round" stroke-miterlimit="4" stroke-width="1.7778" d="M29.333 8l-13.333 9.333-13.333-9.333"></path>
</symbol>
<symbol id="icon-map-pin" viewBox="0 0 32 32">
<path stroke-linejoin="round" stroke-linecap="round" stroke-miterlimit="4" stroke-width="1.7778" d="M28 13.333c0 9.333-12 17.333-12 17.333s-12-8-12-17.333c0-6.627 5.373-12 12-12s12 5.373 12 12v0z"></path>
<path stroke-linejoin="round" stroke-linecap="round" stroke-miterlimit="4" stroke-width="1.7778" d="M16 17.333c2.209 0 4-1.791 4-4s-1.791-4-4-4v0c-2.209 0-4 1.791-4 4s1.791 4 4 4v0z"></path>
</symbol>
<symbol id="icon-menu" viewBox="0 0 32 32">
<path d="M4 5.333h24v2.667h-24v-2.667zM4 14.667h24v2.667h-24v-2.667zM4 24h24v2.667h-24v-2.667z"></path>
</symbol>
 <symbol id="icon-close-black" viewBox="0 0 32 32">
      <path d="M32 3.223 28.777 0 16 12.777 3.223 0 0 3.223 12.777 16 0 28.777 3.223 32 16 19.223 28.777 32 32 28.777 19.223 16 32 3.223z"/>
    </symbol>
<symbol id="icon-message" viewBox="0 0 32 32">
<path fill="#231f20" style="fill: var(--color1, #231f20)" d="M9.333 14.667c0-0.737 0.597-1.334 1.334-1.334s1.334 0.597 1.334 1.334v0c0 0.736-0.597 1.333-1.333 1.333s-1.333-0.597-1.333-1.333v0zM16 13.333c-0.736 0-1.333 0.597-1.333 1.333s0.597 1.333 1.333 1.333c0 0 0 0 0.001 0h-0c0.736 0 1.333-0.597 1.333-1.333s-0.597-1.333-1.333-1.333v0zM21.333 13.333c-0.736 0-1.333 0.597-1.333 1.333s0.597 1.333 1.333 1.333c0 0 0 0 0.001 0h-0c0.736 0 1.333-0.597 1.333-1.333s-0.597-1.333-1.333-1.333v0zM26.532 16.392c-0.676 4.339-4.173 7.937-8.507 8.749-0.603 0.121-1.296 0.19-2.006 0.19-1.498 0-2.924-0.309-4.218-0.866l0.069 0.027c-0.492-0.218-1.066-0.346-1.669-0.349h-0.001c-0.253 0-0.504 0.024-0.751 0.073l-3.749 0.749 0.751-3.756c0.157-0.78 0.061-1.613-0.276-2.413-0.531-1.225-0.839-2.652-0.839-4.15 0-0.709 0.069-1.403 0.201-2.073l-0.011 0.068c0.812-4.332 4.409-7.829 8.749-8.505 3.453-0.537 6.831 0.551 9.267 2.988 2.44 2.44 3.529 5.817 2.991 9.269zM25.429 5.237c-3.047-3.045-7.26-4.404-11.565-3.739-5.436 0.848-9.943 5.227-10.96 10.649-0.15 0.751-0.236 1.615-0.236 2.499 0 1.873 0.386 3.656 1.083 5.274l-0.033-0.087c0.131 0.308 0.171 0.595 0.12 0.853l-1.144 5.716c-0.017 0.079-0.026 0.169-0.026 0.262 0 0.368 0.15 0.701 0.391 0.942l0 0c0.241 0.242 0.574 0.392 0.942 0.392 0.093 0 0.184-0.010 0.271-0.028l-0.009 0.002 5.711-1.143c0.069-0.011 0.148-0.017 0.229-0.017 0.228 0 0.444 0.050 0.638 0.139l-0.010-0.004c1.532 0.664 3.317 1.050 5.191 1.050 0.883 0 1.745-0.086 2.58-0.249l-0.084 0.014c5.424-1.017 9.803-5.524 10.651-10.96 0.669-4.303-0.693-8.519-3.739-11.565z"></path>
<path fill="#0d1c2e" style="fill: var(--color2, #0d1c2e)" d="M0 0h32v32h-32z"></path>
</symbol>
<symbol id="icon-person" viewBox="0 0 32 32">
<path fill="#231f20" style="fill: var(--color1, #231f20)" d="M18.667 9.333c0-1.471-1.196-2.667-2.667-2.667s-2.667 1.196-2.667 2.667 1.196 2.667 2.667 2.667 2.667-1.196 2.667-2.667zM21.333 9.333c0 2.941-2.392 5.333-5.333 5.333s-5.333-2.392-5.333-5.333 2.392-5.333 5.333-5.333 5.333 2.392 5.333 5.333zM6.667 26.667c0-5.147 4.188-9.333 9.333-9.333s9.333 4.187 9.333 9.333c0 0.736-0.597 1.333-1.333 1.333s-1.333-0.597-1.333-1.333v0c0-3.676-2.991-6.667-6.667-6.667s-6.667 2.991-6.667 6.667c0 0.736-0.597 1.333-1.333 1.333s-1.333-0.597-1.333-1.333v0z"></path>
<path fill="#0d1c2e" style="fill: var(--color2, #0d1c2e)" d="M0 0h32v32h-32z"></path>
</symbol>
<symbol id="icon-phone" viewBox="0 0 32 32">
<path stroke-linejoin="round" stroke-linecap="round" stroke-miterlimit="4" stroke-width="1.7778" d="M20.067 6.667c2.666 0.534 4.733 2.6 5.26 5.224l0.007 0.043-5.267-5.267zM20.067 1.333c5.575 0.637 9.956 5.014 10.595 10.531l0.005 0.056-10.6-10.587zM29.333 22.56v4c0 0.003 0 0.007 0 0.011 0 1.473-1.194 2.667-2.667 2.667-0.084 0-0.168-0.004-0.251-0.012l0.011 0.001c-4.327-0.482-8.236-1.943-11.607-4.155l0.1 0.062c-3.242-2.081-5.919-4.758-7.938-7.897l-0.062-0.103c-2.158-3.286-3.62-7.214-4.083-11.442l-0.010-0.118c-0.007-0.072-0.011-0.155-0.011-0.24 0-1.472 1.192-2.665 2.664-2.667h4c0.008-0 0.017-0 0.026-0 1.341 0 2.451 0.99 2.639 2.279l0.002 0.014c0.188 1.4 0.515 2.665 0.973 3.864l-0.039-0.117c0.108 0.279 0.171 0.601 0.171 0.938 0 0.731-0.294 1.394-0.771 1.875l-1.693 1.693c1.932 3.356 4.644 6.068 7.897 7.945l0.103 0.055 1.693-1.693c0.482-0.476 1.144-0.771 1.875-0.771 0.337 0 0.66 0.063 0.957 0.177l-0.018-0.006c1.209 0.452 2.467 0.764 3.747 0.933 1.304 0.189 2.294 1.299 2.294 2.641 0 0.023-0 0.046-0.001 0.070l0-0.003z"></path>
</symbol>
<symbol id="icon-search" viewBox="0 0 32 32">
<path fill="#231f20" style="fill: var(--color1, #231f20)" d="M6.667 14.667c0-4.412 3.588-8 8-8s8 3.588 8 8-3.588 8-8 8-8-3.588-8-8zM27.609 25.724l-4.527-4.528c1.403-1.781 2.25-4.056 2.251-6.529v-0c0-5.881-4.785-10.667-10.667-10.667s-10.667 4.785-10.667 10.667 4.785 10.667 10.667 10.667c2.473-0.001 4.749-0.848 6.552-2.268l-0.023 0.017 4.528 4.527c0.241 0.242 0.574 0.392 0.943 0.392s0.702-0.15 0.943-0.392l0-0c0.242-0.241 0.391-0.574 0.391-0.943s-0.149-0.702-0.391-0.943l-0-0z"></path>
<path fill="#0d1c2e" style="fill: var(--color2, #0d1c2e)" d="M0 0h32v32h-32z"></path>
</symbol>
<symbol id="icon-search-line" viewBox="0 0 32 32">
<path d="M24.041 22.156l5.711 5.709-1.887 1.887-5.709-5.711c-2.027 1.636-4.634 2.625-7.472 2.625-0.006 0-0.012 0-0.018 0h0.001c-6.624 0-12-5.376-12-12s5.376-12 12-12 12 5.376 12 12c0 0.005 0 0.011 0 0.017 0 2.838-0.99 5.446-2.643 7.495l0.018-0.023zM21.367 21.167c1.629-1.674 2.633-3.962 2.633-6.485 0-0.005 0-0.010 0-0.015v0.001c0-5.157-4.177-9.333-9.333-9.333-5.157 0-9.333 4.176-9.333 9.333 0 5.156 4.176 9.333 9.333 9.333 0.004 0 0.009 0 0.015 0 2.523 0 4.812-1.005 6.487-2.635l-0.002 0.002 0.2-0.2z"></path>
</symbol>
<symbol id="icon-settings" viewBox="0 0 32 32">
<path d="M2.667 16c0-1.153 0.147-2.271 0.421-3.339 0.063 0.004 0.136 0.005 0.21 0.005 2.209 0 4-1.791 4-4 0-0.81-0.24-1.563-0.654-2.193l0.009 0.015c1.565-1.541 3.512-2.698 5.686-3.317l0.094-0.023c0.676 1.308 2.018 2.187 3.565 2.187s2.89-0.879 3.555-2.164l0.011-0.022c2.268 0.642 4.215 1.799 5.782 3.342l-0.002-0.002c-0.405 0.615-0.646 1.369-0.646 2.179 0 2.209 1.791 4 4 4 0.075 0 0.149-0.002 0.223-0.006l-0.010 0c0.269 1.002 0.423 2.152 0.423 3.338s-0.154 2.336-0.444 3.431l0.021-0.093c-0.063-0.004-0.137-0.006-0.211-0.006-2.209 0-4 1.791-4 4 0 0.81 0.241 1.563 0.654 2.193l-0.009-0.015c-1.565 1.541-3.512 2.698-5.686 3.317l-0.094 0.023c-0.676-1.308-2.018-2.187-3.565-2.187s-2.89 0.879-3.555 2.164l-0.011 0.022c-2.268-0.642-4.215-1.799-5.782-3.342l0.002 0.002c0.405-0.615 0.646-1.369 0.646-2.179 0-2.209-1.791-4-4-4-0.075 0-0.149 0.002-0.223 0.006l0.010-0c-0.267-0.999-0.42-2.147-0.42-3.33 0-0.003 0-0.005 0-0.008v0zM9.072 20c0.84 1.455 1.080 3.128 0.752 4.699 0.544 0.387 1.123 0.721 1.729 1 1.173-1.054 2.732-1.699 4.442-1.699 0.002 0 0.003 0 0.005 0h-0c1.68 0 3.251 0.628 4.447 1.699 0.607-0.279 1.185-0.613 1.729-1-0.090-0.411-0.142-0.883-0.142-1.367 0-1.227 0.332-2.376 0.911-3.363l-0.017 0.031c0.823-1.409 2.109-2.47 3.646-2.986l0.047-0.014c0.029-0.3 0.046-0.648 0.046-1s-0.017-0.7-0.050-1.044l0.003 0.044c-1.584-0.529-2.871-1.591-3.678-2.969l-0.017-0.031c-0.562-0.956-0.894-2.105-0.894-3.332 0-0.484 0.052-0.956 0.15-1.411l-0.008 0.044c-0.499-0.359-1.066-0.693-1.664-0.973l-0.065-0.027c-1.173 1.054-2.732 1.699-4.442 1.699-0.001 0-0.002 0-0.003 0h0c-0.001 0-0.003 0-0.005 0-1.71 0-3.269-0.645-4.448-1.704l0.006 0.005c-0.663 0.307-1.23 0.641-1.761 1.022l0.032-0.022c0.090 0.411 0.142 0.883 0.142 1.367 0 1.227-0.332 2.376-0.911 3.363l0.017-0.031c-0.823 1.409-2.109 2.47-3.646 2.986l-0.047 0.014c-0.029 0.3-0.046 0.648-0.046 1s0.017 0.7 0.050 1.044l-0.003-0.044c1.584 0.529 2.871 1.591 3.678 2.969l0.017 0.031h-0.001zM16 20c-2.209 0-4-1.791-4-4s1.791-4 4-4v0c2.209 0 4 1.791 4 4s-1.791 4-4 4v0zM16 17.333c0.736 0 1.333-0.597 1.333-1.333s-0.597-1.333-1.333-1.333v0c-0.736 0-1.333 0.597-1.333 1.333s0.597 1.333 1.333 1.333v0z"></path>
</symbol>
<symbol id="icon-share-box" viewBox="0 0 32 32">
<path d="M13.333 4v2.667h-6.667v18.667h18.667v-6.667h2.667v8c0 0.736-0.597 1.333-1.333 1.333v0h-21.333c-0.736 0-1.333-0.597-1.333-1.333v0-21.333c0-0.736 0.597-1.333 1.333-1.333v0h8zM23.448 6.667h-6.115v-2.667h10.667v10.667h-2.667v-6.115l-9.333 9.333-1.885-1.885 9.333-9.333z"></path>
</symbol>
<symbol id="icon-skype" viewBox="0 0 32 32">
<path d="M17.747 27.2c-0.527 0.087-1.134 0.136-1.752 0.136-6.258 0-11.331-5.073-11.331-11.331 0-0.619 0.050-1.226 0.145-1.817l-0.009 0.065c-0.507-0.944-0.804-2.066-0.804-3.257 0-3.866 3.134-7 7-7 1.191 0 2.313 0.298 3.295 0.822l-0.038-0.018c0.526-0.086 1.132-0.136 1.749-0.136 6.259 0 11.333 5.074 11.333 11.333 0 0.617-0.049 1.223-0.144 1.814l0.009-0.065c0.507 0.944 0.804 2.066 0.804 3.257 0 3.866-3.134 7-7 7-1.191 0-2.313-0.298-3.295-0.822l0.038 0.018zM16.069 22.875h-0.053c3.829 0 5.737-1.848 5.737-4.324 0-1.597-0.735-3.295-3.635-3.944l-2.644-0.587c-1.007-0.229-2.163-0.533-2.163-1.487s0.827-1.617 2.299-1.617c2.973 0 2.703 2.037 4.175 2.037 0.768 0 1.457-0.456 1.457-1.24 0-1.827-2.929-3.2-5.408-3.2-2.695 0-5.564 1.145-5.564 4.192 0 1.464 0.525 3.027 3.413 3.751l3.585 0.895c1.088 0.269 1.357 0.879 1.357 1.429 0 0.916-0.912 1.811-2.557 1.811-3.223 0-2.771-2.476-4.499-2.476-0.773 0-1.337 0.531-1.337 1.295 0 1.485 1.803 3.464 5.836 3.464v0.001z"></path>
</symbol>
<symbol id="icon-telegram" viewBox="0 0 32 32">
<path d="M2.595 12.42c-0.696-0.232-0.703-0.607 0.013-0.845l25.449-8.483c0.705-0.235 1.109 0.16 0.912 0.851l-7.272 25.448c-0.2 0.705-0.607 0.729-0.905 0.060l-4.792-10.784 8-10.667-10.667 8-10.739-3.58z"></path>
</symbol>
<symbol id="icon-timer" viewBox="0 0 32 32">
<path fill="#231f20" style="fill: var(--color1, #231f20)" d="M20 16h-2.667v-2.667c0-0.736-0.597-1.333-1.333-1.333s-1.333 0.597-1.333 1.333v0 4c0 0.736 0.597 1.333 1.333 1.333v0h4c0.736 0 1.333-0.597 1.333-1.333s-0.597-1.333-1.333-1.333v0zM16 26.333c-4.968-0.006-8.994-4.032-9-8.999v-0.001c0.006-4.968 4.032-8.994 8.999-9h0.001c4.968 0.006 8.994 4.032 9 8.999v0.001c-0.006 4.968-4.032 8.994-8.999 9h-0.001zM17.317 5.411c0.003-0.028 0.016-0.049 0.016-0.077v-1.333h1.333c0.736 0 1.333-0.597 1.333-1.333s-0.597-1.333-1.333-1.333v0h-5.333c-0.736 0-1.333 0.597-1.333 1.333s0.597 1.333 1.333 1.333v0h1.333v1.333c0 0.028 0.013 0.049 0.016 0.077-5.999 0.659-10.683 5.752-10.683 11.923 0 6.617 5.384 12 12 12s12-5.383 12-12c0-6.171-4.684-11.264-10.683-11.923z"></path>
<path fill="#0d1c2e" style="fill: var(--color2, #0d1c2e)" d="M0 0h32v32h-32z"></path>
</symbol>
<symbol id="icon-twitter" viewBox="0 0 32 32">
<path d="M29.549 7.541c-0.933 0.424-2.014 0.733-3.149 0.872l-0.054 0.005c1.154-0.698 2.021-1.771 2.442-3.046l0.011-0.040c-1.093 0.651-2.292 1.107-3.541 1.353-1.020-1.090-2.468-1.769-4.074-1.769-3.080 0-5.576 2.496-5.576 5.576 0 0.453 0.054 0.894 0.156 1.316l-0.008-0.038c-4.645-0.24-8.731-2.447-11.471-5.798l-0.022-0.028c-0.474 0.801-0.755 1.766-0.755 2.796 0 0.003 0 0.006 0 0.008v-0c0 1.933 0.984 3.641 2.48 4.641-0.931-0.030-1.797-0.285-2.553-0.712l0.028 0.014v0.069c0.001 2.69 1.904 4.934 4.437 5.462l0.036 0.006c-0.44 0.124-0.946 0.195-1.468 0.195-0.372 0-0.736-0.036-1.087-0.105l0.036 0.006c0.733 2.234 2.779 3.827 5.204 3.873l0.005 0c-1.884 1.49-4.293 2.39-6.913 2.39-0.473 0-0.939-0.029-1.396-0.086l0.055 0.006c2.411 1.572 5.362 2.507 8.532 2.507 0.005 0 0.010 0 0.016 0h-0.001c10.257 0 15.867-8.497 15.867-15.867 0-0.24-0.007-0.483-0.017-0.72 1.096-0.798 2.019-1.755 2.757-2.847l0.026-0.040-0.001-0.001z"></path>
</symbol>
</defs>
</svg>
